<svg width="1024" height="1024" viewBox="0 0 1024 1024" xmlns="http://www.w3.org/2000/svg">
  <!-- Bee Body -->
  <ellipse cx="512" cy="560" rx="280" ry="360" fill="#FFC107" stroke="#3E2723" stroke-width="24"/>
  
  <!-- Stripes -->
  <path d="M292 640 Q512 720 732 640" stroke="#3E2723" stroke-width="48" fill="none" stroke-linecap="round"/>
  <path d="M272 480 Q512 560 752 480" stroke="#3E2723" stroke-width="48" fill="none" stroke-linecap="round"/>
  
  <!-- Wings -->
  <path d="M300 400 C100 200 100 600 300 600" fill="#E1F5FE" stroke="#29B6F6" stroke-width="16" opacity="0.9"/>
  <path d="M724 400 C924 200 924 600 724 600" fill="#E1F5FE" stroke="#29B6F6" stroke-width="16" opacity="0.9"/>
  
  <!-- Head -->
  <circle cx="512" cy="280" r="200" fill="#FFC107" stroke="#3E2723" stroke-width="24"/>
  
  <!-- Eyes -->
  <ellipse cx="440" cy="260" rx="40" ry="50" fill="#3E2723"/>
  <ellipse cx="584" cy="260" rx="40" ry="50" fill="#3E2723"/>
  <circle cx="450" cy="250" r="16" fill="#FFFFFF"/>
  <circle cx="594" cy="250" r="16" fill="#FFFFFF"/>
  
  <!-- Antennae -->
  <path d="M420 120 Q400 40 340 60" stroke="#3E2723" stroke-width="20" fill="none" stroke-linecap="round"/>
  <circle cx="340" cy="60" r="20" fill="#3E2723"/>
  
  <path d="M604 120 Q624 40 684 60" stroke="#3E2723" stroke-width="20" fill="none" stroke-linecap="round"/>
  <circle cx="684" cy="60" r="20" fill="#3E2723"/>
  
  <!-- Smile -->
  <path d="M460 340 Q512 380 564 340" stroke="#3E2723" stroke-width="20" fill="none" stroke-linecap="round"/>
  
  <!-- Cheeks -->
  <circle cx="400" cy="320" r="30" fill="#FF8A80" opacity="0.6"/>
  <circle cx="624" cy="320" r="30" fill="#FF8A80" opacity="0.6"/>
</svg>
